<?xml version="1.0" encoding="UTF-8"?>
<!DOCTYPE svg PUBLIC "-//W3C//DTD SVG 1.1//EN" "http://www.w3.org/Graphics/SVG/1.1/DTD/svg11.dtd">
<svg xmlns="http://www.w3.org/2000/svg" version="1.1" width="1500px" height="1500px" style="shape-rendering:geometricPrecision; text-rendering:geometricPrecision; image-rendering:optimizeQuality; fill-rule:evenodd; clip-rule:evenodd" xmlns:xlink="http://www.w3.org/1999/xlink">
<g><path style="opacity:0.995" fill="#000000" d="M 650.5,125.5 C 690.167,125.5 729.833,125.5 769.5,125.5C 769.5,152.833 769.5,180.167 769.5,207.5C 930.727,226.56 1009.23,317.226 1005,479.5C 1004.48,490.176 1003.81,500.843 1003,511.5C 917.713,513.496 832.213,514.162 746.5,513.5C 746.928,480.797 746.095,448.13 744,415.5C 743.263,405.671 741.596,396.004 739,386.5C 735.07,374.236 726.903,366.403 714.5,363C 683.665,356.841 664.499,369.008 657,399.5C 651.209,430.58 652.876,461.246 662,491.5C 665.86,501.392 671.36,510.226 678.5,518C 689.928,528.097 701.928,537.431 714.5,546C 777.331,586.25 840.331,626.25 903.5,666C 924.784,680.274 944.618,696.441 963,714.5C 1008.34,770.157 1031.34,834.157 1032,906.5C 1034.43,950.692 1030.76,994.359 1021,1037.5C 995.863,1136.3 934.363,1200.14 836.5,1229C 814.507,1235.43 792.173,1240.27 769.5,1243.5C 769.5,1275.5 769.5,1307.5 769.5,1339.5C 729.833,1339.5 690.167,1339.5 650.5,1339.5C 650.833,1306.49 650.5,1273.49 649.5,1240.5C 580.61,1232.88 520.61,1206.04 469.5,1160C 443.848,1134.89 425.681,1105.05 415,1070.5C 403.928,1034.67 397.595,998 396,960.5C 394.868,930.51 394.368,900.51 394.5,870.5C 480.167,870.5 565.833,870.5 651.5,870.5C 650.981,921.526 651.814,972.526 654,1023.5C 654.677,1034.25 656.01,1044.92 658,1055.5C 660.743,1072.58 670.576,1082.74 687.5,1086C 720.485,1089.59 739.985,1075.09 746,1042.5C 747.023,1036.21 747.689,1029.87 748,1023.5C 748.487,991.392 746.82,959.392 743,927.5C 741.528,903.391 732.861,882.391 717,864.5C 707.305,854.748 697.139,845.582 686.5,837C 633.491,802.83 580.824,768.164 528.5,733C 465.613,691.07 423.779,633.57 403,560.5C 391.28,514.751 388.28,468.418 394,421.5C 405.219,333.979 451.052,272.479 531.5,237C 569.718,221.362 609.384,211.529 650.5,207.5C 650.5,180.167 650.5,152.833 650.5,125.5 Z"/></g>
</svg>
