<?xml version="1.0" encoding="UTF-8"?>
<!DOCTYPE svg PUBLIC "-//W3C//DTD SVG 1.1//EN" "http://www.w3.org/Graphics/SVG/1.1/DTD/svg11.dtd">
<svg xmlns="http://www.w3.org/2000/svg" version="1.1" width="215px" height="205px" style="shape-rendering:geometricPrecision; text-rendering:geometricPrecision; image-rendering:optimizeQuality; fill-rule:evenodd; clip-rule:evenodd" xmlns:xlink="http://www.w3.org/1999/xlink">
<g><path style="opacity:1" fill="#010101" d="M -0.5,-0.5 C 71.1667,-0.5 142.833,-0.5 214.5,-0.5C 214.5,67.8333 214.5,136.167 214.5,204.5C 142.833,204.5 71.1667,204.5 -0.5,204.5C -0.5,136.167 -0.5,67.8333 -0.5,-0.5 Z"/></g>
<g><path style="opacity:1" fill="#fefefe" d="M 7.5,5.5 C 74.1675,5.33334 140.834,5.5 207.5,6C 208,6.5 208.5,7 209,7.5C 209.667,70.5 209.667,133.5 209,196.5C 208.5,197 208,197.5 207.5,198C 140.833,198.667 74.1667,198.667 7.5,198C 7,197.5 6.5,197 6,196.5C 5.33333,133.5 5.33333,70.5 6,7.5C 6.71719,6.9558 7.21719,6.28913 7.5,5.5 Z"/></g>
<g><path style="opacity:1" fill="#0f0f0f" d="M 113.5,19.5 C 115.808,20.7928 118.142,22.1261 120.5,23.5C 124.775,25.3499 128.775,27.6833 132.5,30.5C 134.456,31.4918 136.456,32.4918 138.5,33.5C 143.349,35.3336 147.682,38.1669 151.5,42C 152.448,42.4828 153.448,42.6495 154.5,42.5C 158.893,45.5399 163.559,48.2066 168.5,50.5C 172.041,53.3091 176.041,55.4758 180.5,57C 181.381,57.7083 182.047,58.5416 182.5,59.5C 182.5,87.8333 182.5,116.167 182.5,144.5C 182.047,145.458 181.381,146.292 180.5,147C 174.788,149.234 169.454,152.067 164.5,155.5C 161.299,156.931 158.299,158.597 155.5,160.5C 155.5,161.167 155.167,161.5 154.5,161.5C 152.566,162.11 150.899,163.11 149.5,164.5C 149.5,164.833 149.5,165.167 149.5,165.5C 144.995,166.553 140.995,168.553 137.5,171.5C 135.545,171.799 134.211,172.799 133.5,174.5C 129.6,176.347 125.6,178.18 121.5,180C 119.382,181.049 117.716,182.549 116.5,184.5C 115.833,184.5 115.5,184.833 115.5,185.5C 111.951,186.871 108.284,187.371 104.5,187C 100.228,183.763 95.5611,181.263 90.5,179.5C 85.0411,175.232 79.0411,171.899 72.5,169.5C 69.2293,165.253 64.8959,162.586 59.5,161.5C 51.6375,155.966 43.3042,151.299 34.5,147.5C 34.1667,146.5 33.5,145.833 32.5,145.5C 32.1752,116.093 32.5085,86.7596 33.5,57.5C 41.9956,53.9861 49.9956,49.6528 57.5,44.5C 63.0006,42.2532 68.0006,39.2532 72.5,35.5C 77.9103,32.4661 83.2436,29.4661 88.5,26.5C 93.0274,24.4049 97.3608,22.0716 101.5,19.5C 103.032,17.5438 105.199,16.5438 108,16.5C 110.399,16.6132 112.232,17.6132 113.5,19.5 Z"/></g>
<g><path style="opacity:1" fill="#898989" d="M 113.5,19.5 C 116.857,19.2159 119.191,20.5493 120.5,23.5C 118.142,22.1261 115.808,20.7928 113.5,19.5 Z"/></g>
<g><path style="opacity:1" fill="#b4b4b4" d="M 101.5,19.5 C 97.3608,22.0716 93.0274,24.4049 88.5,26.5C 91.8226,22.5587 96.1559,20.2254 101.5,19.5 Z"/></g>
<g><path style="opacity:1" fill="#f9f9f9" d="M 112.5,25.5 C 131.665,36.5816 150.665,47.9149 169.5,59.5C 149.896,70.9735 130.23,82.4735 110.5,94C 108.975,95.0086 107.308,95.5086 105.5,95.5C 85.6959,84.0967 66.0293,72.43 46.5,60.5C 57.635,53.7624 68.9683,47.2624 80.5,41C 91.1082,35.5281 101.775,30.3614 112.5,25.5 Z"/></g>
<g><path style="opacity:1" fill="#8f8f8f" d="M 132.5,30.5 C 135.313,30.0246 137.313,31.0246 138.5,33.5C 136.456,32.4918 134.456,31.4918 132.5,30.5 Z"/></g>
<g><path style="opacity:1" fill="#bdbdbd" d="M 72.5,35.5 C 68.0006,39.2532 63.0006,42.2532 57.5,44.5C 57.7214,43.2652 58.3881,42.2652 59.5,41.5C 62.8718,40.2988 65.8718,38.4655 68.5,36C 69.7932,35.51 71.1266,35.3433 72.5,35.5 Z"/></g>
<g><path style="opacity:1" fill="#b4b4b4" d="M 138.5,33.5 C 142.089,34.8159 145.756,35.9825 149.5,37C 150.692,39.3549 152.359,41.1882 154.5,42.5C 153.448,42.6495 152.448,42.4828 151.5,42C 147.682,38.1669 143.349,35.3336 138.5,33.5 Z"/></g>
<g><path style="opacity:1" fill="#b1b1b1" d="M 154.5,42.5 C 155.873,42.3433 157.207,42.51 158.5,43C 162.216,45.0584 165.55,47.5584 168.5,50.5C 163.559,48.2066 158.893,45.5399 154.5,42.5 Z"/></g>
<g><path style="opacity:1" fill="#6c6c6d" d="M 131.5,52.5 C 129.409,52.3184 127.409,52.6518 125.5,53.5C 124.614,54.325 124.281,55.325 124.5,56.5C 122.585,56.7845 120.919,56.4511 119.5,55.5C 122.114,55.7229 123.781,54.5562 124.5,52C 127.039,51.2042 129.372,51.3709 131.5,52.5 Z"/></g>
<g><path style="opacity:1" fill="#151311" d="M 109.5,32.5 C 112.75,34.2433 115.584,36.5766 118,39.5C 118.173,45.0158 118.673,50.3491 119.5,55.5C 120.919,56.4511 122.585,56.7845 124.5,56.5C 124.281,55.325 124.614,54.325 125.5,53.5C 127.409,52.6518 129.409,52.3184 131.5,52.5C 133.913,53.6798 134.913,55.6798 134.5,58.5C 140.5,58.5 146.5,58.5 152.5,58.5C 152.5,60.8333 152.5,63.1667 152.5,65.5C 146.5,65.5 140.5,65.5 134.5,65.5C 134.762,66.9778 134.429,68.3112 133.5,69.5C 130.916,70.3928 128.249,70.7261 125.5,70.5C 125.5,71.8333 125.5,73.1667 125.5,74.5C 122.236,75.3242 118.902,75.6576 115.5,75.5C 115.5,78.8333 115.5,82.1667 115.5,85.5C 111.833,85.5 108.167,85.5 104.5,85.5C 104.81,82.2869 104.477,79.2869 103.5,76.5C 101.031,75.6829 98.3647,75.1829 95.5,75C 94.244,74.5831 93.5774,73.7498 93.5,72.5C 95.3473,69.8285 98.014,68.8285 101.5,69.5C 101.737,68.209 101.404,67.209 100.5,66.5C 90.5766,65.6913 80.5766,65.1913 70.5,65C 66.5885,63.2087 62.5885,61.7087 58.5,60.5C 62.2922,58.7844 66.2922,57.2844 70.5,56C 78.4931,55.5003 86.4931,55.3336 94.5,55.5C 95.1667,55.5 95.8333,55.5 96.5,55.5C 97.9187,56.4511 99.5853,56.7845 101.5,56.5C 101.171,50.4632 101.504,44.4632 102.5,38.5C 104.929,36.3884 107.262,34.3884 109.5,32.5 Z"/></g>
<g><path style="opacity:1" fill="#8b8b8b" d="M 108.5,36.5 C 110.371,36.8588 111.871,37.8588 113,39.5C 113.829,44.8643 113.663,50.1977 112.5,55.5C 111.717,53.7118 110.384,52.7118 108.5,52.5C 108.5,47.1667 108.5,41.8333 108.5,36.5 Z"/></g>
<g><path style="opacity:1" fill="#535353" d="M 108.5,36.5 C 108.5,41.8333 108.5,47.1667 108.5,52.5C 107.596,53.209 107.263,54.209 107.5,55.5C 106.5,55.5 105.5,55.5 104.5,55.5C 104.334,50.1563 104.501,44.8229 105,39.5C 106.039,38.2899 107.206,37.2899 108.5,36.5 Z"/></g>
<g><path style="opacity:1" fill="#737373" d="M 94.5,55.5 C 86.4931,55.3336 78.4931,55.5003 70.5,56C 66.2922,57.2844 62.2922,58.7844 58.5,60.5C 57.9569,60.44 57.6236,60.1067 57.5,59.5C 61.3854,57.7252 65.3854,56.2252 69.5,55C 78.0104,54.1768 86.3437,54.3434 94.5,55.5 Z"/></g>
<g><path style="opacity:1" fill="#4d4d4d" d="M 109.5,32.5 C 107.262,34.3884 104.929,36.3884 102.5,38.5C 101.504,44.4632 101.171,50.4632 101.5,56.5C 99.5853,56.7845 97.9187,56.4511 96.5,55.5C 97.5,55.5 98.5,55.5 99.5,55.5C 99.3339,49.8236 99.5006,44.1569 100,38.5C 102.795,36.7068 105.295,34.5402 107.5,32C 108.437,31.3083 109.103,31.475 109.5,32.5 Z"/></g>
<g><path style="opacity:1" fill="#82350c" d="M 130.5,59.5 C 129.609,58.8902 128.609,58.5569 127.5,58.5C 127.5,57.1667 127.5,55.8333 127.5,54.5C 128.5,54.5 129.5,54.5 130.5,54.5C 130.5,56.1667 130.5,57.8333 130.5,59.5 Z"/></g>
<g><path style="opacity:1" fill="#777777" d="M 106.5,58.5 C 94.4954,58.3335 82.4954,58.5001 70.5,59C 75.6835,59.1739 80.6835,59.6739 85.5,60.5C 79.8236,60.6661 74.1569,60.4994 68.5,60C 69.056,59.6174 69.3893,59.1174 69.5,58.5C 81.8333,57.1667 94.1667,57.1667 106.5,58.5 Z"/></g>
<g><path style="opacity:1" fill="#9e9e9e" d="M 112.5,25.5 C 101.775,30.3614 91.1082,35.5281 80.5,41C 68.9683,47.2624 57.635,53.7624 46.5,60.5C 66.0293,72.43 85.6959,84.0967 105.5,95.5C 106.568,96.4345 107.901,96.7678 109.5,96.5C 108.686,98.2726 107.352,98.7726 105.5,98C 84.6313,85.7368 63.9647,73.2368 43.5,60.5C 63.9704,48.762 84.6371,37.262 105.5,26C 107.895,24.4022 110.228,24.2355 112.5,25.5 Z"/></g>
<g><path style="opacity:1" fill="#535353" d="M 69.5,58.5 C 69.3893,59.1174 69.056,59.6174 68.5,60C 74.1569,60.4994 79.8236,60.6661 85.5,60.5C 98.0007,60.0767 110.334,59.41 122.5,58.5C 123.289,58.7828 123.956,59.2828 124.5,60C 115.149,60.1679 105.816,60.6679 96.5,61.5C 105.148,62.3319 113.814,62.8319 122.5,63C 105.833,63.6667 89.1667,63.6667 72.5,63C 70.1667,62 67.8333,61 65.5,60C 66.5634,58.8118 67.8967,58.3118 69.5,58.5 Z"/></g>
<g><path style="opacity:1" fill="#9f9f9f" d="M 106.5,58.5 C 111.833,58.5 117.167,58.5 122.5,58.5C 110.334,59.41 98.0007,60.0767 85.5,60.5C 80.6835,59.6739 75.6835,59.1739 70.5,59C 82.4954,58.5001 94.4954,58.3335 106.5,58.5 Z"/></g>
<g><path style="opacity:1" fill="#b56a34" d="M 134.5,60.5 C 136.924,60.1924 139.257,60.5258 141.5,61.5C 140.333,61.8333 139.167,62.1667 138,62.5C 136.319,62.3917 135.152,61.7251 134.5,60.5 Z"/></g>
<g><path style="opacity:1" fill="#bcbcbc" d="M 33.5,57.5 C 32.5085,86.7596 32.1752,116.093 32.5,145.5C 31.8334,131.004 31.5001,116.337 31.5,101.5C 31.5006,86.4844 32.1673,71.8178 33.5,57.5 Z"/></g>
<g><path style="opacity:1" fill="#9e263b" d="M 145.5,60.5 C 147.346,60.2222 148.68,60.8888 149.5,62.5C 147.167,63.9415 145.834,63.2748 145.5,60.5 Z"/></g>
<g><path style="opacity:1" fill="#c9c9c9" d="M 169.5,59.5 C 170.167,59.8333 170.833,60.1667 171.5,60.5C 156.334,69.2484 141.334,78.2484 126.5,87.5C 120.702,90.2326 115.035,93.2326 109.5,96.5C 107.901,96.7678 106.568,96.4345 105.5,95.5C 107.308,95.5086 108.975,95.0086 110.5,94C 130.23,82.4735 149.896,70.9735 169.5,59.5 Z"/></g>
<g><path style="opacity:1" fill="#d1ae1a" d="M 127.5,58.5 C 128.609,58.5569 129.609,58.8902 130.5,59.5C 130.5,62.5 130.5,65.5 130.5,68.5C 129.5,68.5 128.5,68.5 127.5,68.5C 127.5,65.1667 127.5,61.8333 127.5,58.5 Z"/></g>
<g><path style="opacity:1" fill="#d8d8d8" d="M 125.5,70.5 C 123.236,69.7814 120.903,69.448 118.5,69.5C 118.5,68.5 118.5,67.5 118.5,66.5C 121.89,66.1149 124.223,67.4483 125.5,70.5 Z"/></g>
<g><path style="opacity:1" fill="#5f6060" d="M 100.5,66.5 C 101.404,67.209 101.737,68.209 101.5,69.5C 98.014,68.8285 95.3473,69.8285 93.5,72.5C 92.2241,71.6136 92.2241,70.6136 93.5,69.5C 96.3451,69.2343 98.6784,68.2343 100.5,66.5 Z"/></g>
<g><path style="opacity:1" fill="#747474" d="M 111.5,66.5 C 112.5,66.5 113.5,66.5 114.5,66.5C 114.435,69.9983 113.101,70.4983 110.5,68C 111.056,67.6174 111.389,67.1174 111.5,66.5 Z"/></g>
<g><path style="opacity:1" fill="#f9f9f9" d="M 177.5,141.5 C 173.594,141.894 169.928,143.06 166.5,145C 149.389,154.881 132.389,164.714 115.5,174.5C 115.186,150.455 115.52,126.455 116.5,102.5C 136.301,91.7655 155.968,80.7655 175.5,69.5C 177.243,93.4639 177.91,117.464 177.5,141.5 Z"/></g>
<g><path style="opacity:1" fill="#873c0e" d="M 104.5,71.5 C 104.833,72.1667 105.167,72.8333 105.5,73.5C 102.351,73.7886 99.3508,73.2886 96.5,72C 99.146,71.5026 101.813,71.3359 104.5,71.5 Z"/></g>
<g><path style="opacity:1" fill="#c7a419" d="M 104.5,71.5 C 110.683,71.0474 116.683,71.5474 122.5,73C 116.843,73.4994 111.176,73.6661 105.5,73.5C 105.167,72.8333 104.833,72.1667 104.5,71.5 Z"/></g>
<g><path style="opacity:1" fill="#f8f8f8" d="M 41.5,71.5 C 62.7767,82.9378 83.9433,94.6045 105,106.5C 105.5,130.498 105.667,154.498 105.5,178.5C 100.096,175.264 94.4289,172.431 88.5,170C 85.2539,166.43 81.2539,164.097 76.5,163C 73.2539,159.43 69.2539,157.097 64.5,156C 61.0884,152.913 57.4217,150.246 53.5,148C 51.0427,146.438 48.376,145.438 45.5,145C 43.3039,143.301 41.3039,141.467 39.5,139.5C 40.1897,118.507 40.5231,97.5071 40.5,76.5C 40.2155,74.5853 40.5489,72.9187 41.5,71.5 Z"/></g>
<g><path style="opacity:1" fill="#4f4f4f" d="M 171.5,60.5 C 172.525,60.8966 172.692,61.5632 172,62.5C 157.13,71.5152 141.964,79.8485 126.5,87.5C 141.334,78.2484 156.334,69.2484 171.5,60.5 Z"/></g>
<g><path style="opacity:1" fill="#9e5121" d="M 107.5,75.5 C 108.833,75.5 110.167,75.5 111.5,75.5C 111.5,76.8333 111.5,78.1667 111.5,79.5C 110.167,79.5 108.833,79.5 107.5,79.5C 107.5,78.1667 107.5,76.8333 107.5,75.5 Z"/></g>
<g><path style="opacity:1" fill="#4b4b4b" d="M 103.5,76.5 C 104.477,79.2869 104.81,82.2869 104.5,85.5C 108.167,85.5 111.833,85.5 115.5,85.5C 115.5,85.8333 115.5,86.1667 115.5,86.5C 111.5,86.5 107.5,86.5 103.5,86.5C 103.5,83.1667 103.5,79.8333 103.5,76.5 Z"/></g>
<g><path style="opacity:1" fill="#af2b42" d="M 107.5,81.5 C 108.978,81.238 110.311,81.5713 111.5,82.5C 110.833,82.8333 110.167,83.1667 109.5,83.5C 108.287,83.2528 107.62,82.5862 107.5,81.5 Z"/></g>
<g><path style="opacity:1" fill="#949494" d="M 125.5,74.5 C 123.012,76.3878 120.012,77.0545 116.5,76.5C 116.813,80.0419 116.479,83.3752 115.5,86.5C 115.5,86.1667 115.5,85.8333 115.5,85.5C 115.5,82.1667 115.5,78.8333 115.5,75.5C 118.902,75.6576 122.236,75.3242 125.5,74.5 Z"/></g>
<g><path style="opacity:1" fill="#a0a0a0" d="M 182.5,59.5 C 183.833,73.3172 184.499,87.4839 184.5,102C 184.5,116.337 184.167,130.504 183.5,144.5C 183.167,144.5 182.833,144.5 182.5,144.5C 182.5,116.167 182.5,87.8333 182.5,59.5 Z"/></g>
<g><path style="opacity:1" fill="#17191f" d="M 142.5,98.5 C 142.5,99.8333 141.833,100.5 140.5,100.5C 140.5,99.1667 141.167,98.5 142.5,98.5 Z"/></g>
<g><path style="opacity:1" fill="#0b4aa1" d="M 144.5,106.5 C 144.5,121.167 144.5,135.833 144.5,150.5C 143.5,150.5 142.5,150.5 141.5,150.5C 134.537,148.368 130.037,143.701 128,136.5C 126.459,128.852 126.292,121.185 127.5,113.5C 132.876,110.124 137.209,105.791 140.5,100.5C 141.833,100.5 142.5,99.8333 142.5,98.5C 143.117,98.3893 143.617,98.056 144,97.5C 144.498,100.482 144.665,103.482 144.5,106.5 Z"/></g>
<g><path style="opacity:1" fill="#5d5d5d" d="M 70.5,105.5 C 70.5,112.5 70.5,119.5 70.5,126.5C 68.5159,126.484 67.5159,127.484 67.5,129.5C 68.1267,131.787 69.46,133.454 71.5,134.5C 70.2348,136.357 70.5682,138.024 72.5,139.5C 71.8333,140.5 71.1667,141.5 70.5,142.5C 69.9681,140.37 69.1348,138.37 68,136.5C 67.6667,137.5 67.3333,138.5 67,139.5C 66.7978,137.744 66.2978,136.078 65.5,134.5C 64.8182,135.243 64.1515,135.909 63.5,136.5C 64.1624,131.643 62.3291,127.977 58,125.5C 57.8141,121.484 57.8141,117.484 58,113.5C 57.79,115.058 57.29,116.391 56.5,117.5C 55.8096,112.774 55.8096,108.107 56.5,103.5C 57.2216,103.918 57.7216,104.584 58,105.5C 59.0282,103.484 60.6948,102.484 63,102.5C 65.8667,102.839 68.3667,103.839 70.5,105.5 Z"/></g>
<g><path style="opacity:1" fill="#292929" d="M 85.5,140.5 C 83.835,141.344 82.1683,142.344 80.5,143.5C 76.8172,146.294 73.4838,145.961 70.5,142.5C 71.1667,141.5 71.8333,140.5 72.5,139.5C 73.4837,144.658 74.3171,144.658 75,139.5C 76.0437,140.623 76.7104,141.956 77,143.5C 77.49,142.207 77.6567,140.873 77.5,139.5C 79.8333,139.5 82.1667,139.5 84.5,139.5C 83.8637,132.185 83.3637,124.852 83,117.5C 80.262,111.927 76.0953,107.927 70.5,105.5C 68.3667,103.839 65.8667,102.839 63,102.5C 60.6948,102.484 59.0282,103.484 58,105.5C 57.7216,104.584 57.2216,103.918 56.5,103.5C 54.3393,99.6512 51.506,96.3179 48,93.5C 47.5065,91.8659 47.3398,90.1992 47.5,88.5C 50.001,87.1736 52.6677,86.6736 55.5,87C 56.7014,87.9025 57.5348,89.0692 58,90.5C 58.1971,93.6919 59.0304,96.6919 60.5,99.5C 68.4901,101.577 75.3235,105.577 81,111.5C 83.1025,109.697 83.9358,107.364 83.5,104.5C 86.7845,104.269 89.2845,105.603 91,108.5C 92.3764,111.053 93.5431,113.72 94.5,116.5C 94.3918,117.442 94.0585,118.275 93.5,119C 90.9402,118.562 88.4402,118.729 86,119.5C 85.5819,123.178 85.0819,126.845 84.5,130.5C 85.2096,133.799 85.5429,137.133 85.5,140.5 Z"/></g>
<g><path style="opacity:1" fill="#0a0a0a" d="M 59.5,114.5 C 67.1248,114.279 70.1248,117.779 68.5,125C 62.1979,124.521 59.1979,121.021 59.5,114.5 Z"/></g>
<g><path style="opacity:1" fill="#b8b8b8" d="M 40.5,76.5 C 40.5231,97.5071 40.1897,118.507 39.5,139.5C 38.4396,118.488 38.7729,97.488 40.5,76.5 Z"/></g>
<g><path style="opacity:1" fill="#13161b" d="M 162.5,120.5 C 159.864,132.939 154.197,143.773 145.5,153C 138.232,153.11 132.732,149.944 129,143.5C 124.865,133.911 123.531,123.911 125,113.5C 130.475,109.516 135.642,105.182 140.5,100.5C 137.209,105.791 132.876,110.124 127.5,113.5C 126.292,121.185 126.459,128.852 128,136.5C 130.037,143.701 134.537,148.368 141.5,150.5C 142.568,151.434 143.901,151.768 145.5,151.5C 145.829,136.324 145.496,121.324 144.5,106.5C 144.665,103.482 144.498,100.482 144,97.5C 143.617,98.056 143.117,98.3893 142.5,98.5C 142.511,96.9826 143.177,95.8159 144.5,95C 151.626,95.2541 158.292,93.7541 164.5,90.5C 165.664,97.4763 165.831,104.476 165,111.5C 164.796,114.797 163.963,117.797 162.5,120.5 Z"/></g>
<g><path style="opacity:1" fill="#0093fa" d="M 162.5,120.5 C 158.934,130.963 153.767,140.63 147,149.5C 146.5,131.836 146.333,114.17 146.5,96.5C 152.844,97.101 158.678,95.7677 164,92.5C 164.792,101.918 164.292,111.251 162.5,120.5 Z"/></g>
<g><path style="opacity:1" fill="#1a1a1a" d="M 63.5,136.5 C 62.922,133.045 61.2553,132.212 58.5,134C 57.5769,136.041 57.2436,138.208 57.5,140.5C 52.5534,140.22 49.8867,137.554 49.5,132.5C 48.8826,132.389 48.3826,132.056 48,131.5C 47.5045,129.527 47.3379,127.527 47.5,125.5C 49.91,126.063 52.2433,126.563 54.5,127C 55.132,123.73 55.7986,120.563 56.5,117.5C 57.29,116.391 57.79,115.058 58,113.5C 57.8141,117.484 57.8141,121.484 58,125.5C 62.3291,127.977 64.1624,131.643 63.5,136.5 Z"/></g>
<g><path style="opacity:1" fill="#3d3d3d" d="M 49.5,132.5 C 48.962,130.883 48.6287,129.216 48.5,127.5C 51.5258,128.577 54.5258,128.577 57.5,127.5C 58.8333,128.167 59.8333,129.167 60.5,130.5C 59.1349,131.941 57.6349,133.274 56,134.5C 55.5078,135.549 55.6744,136.549 56.5,137.5C 56,137.833 55.5,138.167 55,138.5C 52.5697,136.993 50.7364,134.993 49.5,132.5 Z"/></g>
<g><path style="opacity:1" fill="#2f2f2f" d="M 70.5,126.5 C 72.0163,128.199 73.0163,130.199 73.5,132.5C 73.2528,133.713 72.5862,134.38 71.5,134.5C 69.46,133.454 68.1267,131.787 67.5,129.5C 67.5159,127.484 68.5159,126.484 70.5,126.5 Z"/></g>
<g><path style="opacity:1" fill="#909090" d="M 70.5,105.5 C 76.0953,107.927 80.262,111.927 83,117.5C 83.3637,124.852 83.8637,132.185 84.5,139.5C 82.1667,139.5 79.8333,139.5 77.5,139.5C 77.6567,140.873 77.49,142.207 77,143.5C 76.7104,141.956 76.0437,140.623 75,139.5C 74.3171,144.658 73.4837,144.658 72.5,139.5C 70.5682,138.024 70.2348,136.357 71.5,134.5C 72.5862,134.38 73.2528,133.713 73.5,132.5C 73.0163,130.199 72.0163,128.199 70.5,126.5C 70.5,119.5 70.5,112.5 70.5,105.5 Z"/></g>
<g><path style="opacity:1" fill="#0c0c0c" d="M 71.5,120.5 C 78.9785,121.12 81.9785,124.953 80.5,132C 76.3291,131.855 73.4957,129.689 72,125.5C 71.5065,123.866 71.3398,122.199 71.5,120.5 Z"/></g>
<g><path style="opacity:1" fill="#202020" d="M 70.5,142.5 C 66.9111,141.908 64.5778,139.908 63.5,136.5C 64.1515,135.909 64.8182,135.243 65.5,134.5C 66.2978,136.078 66.7978,137.744 67,139.5C 67.3333,138.5 67.6667,137.5 68,136.5C 69.1348,138.37 69.9681,140.37 70.5,142.5 Z"/></g>
<g><path style="opacity:1" fill="#062958" d="M 144.5,106.5 C 145.496,121.324 145.829,136.324 145.5,151.5C 143.901,151.768 142.568,151.434 141.5,150.5C 142.5,150.5 143.5,150.5 144.5,150.5C 144.5,135.833 144.5,121.167 144.5,106.5 Z"/></g>
<g><path style="opacity:1" fill="#393939" d="M 85.5,140.5 C 85.9214,145.243 88.2547,148.576 92.5,150.5C 91.9035,151.935 91.9035,153.602 92.5,155.5C 90.5185,156.348 88.5185,156.848 86.5,157C 85.9741,151.787 83.9741,147.287 80.5,143.5C 82.1683,142.344 83.835,141.344 85.5,140.5 Z"/></g>
<g><path style="opacity:1" fill="#afafaf" d="M 34.5,147.5 C 43.3042,151.299 51.6375,155.966 59.5,161.5C 58.448,161.649 57.448,161.483 56.5,161C 48.8353,156.956 41.502,152.456 34.5,147.5 Z"/></g>
<g><path style="opacity:1" fill="#1e1e1e" d="M 80.5,143.5 C 83.9741,147.287 85.9741,151.787 86.5,157C 88.5185,156.848 90.5185,156.348 92.5,155.5C 91.9035,153.602 91.9035,151.935 92.5,150.5C 94.1675,152.479 94.8342,154.812 94.5,157.5C 91.846,158.342 89.1794,158.842 86.5,159C 85.6667,158.167 84.8333,157.333 84,156.5C 83.8871,151.849 82.7204,147.515 80.5,143.5 Z"/></g>
<g><path style="opacity:1" fill="#c2c2c2" d="M 182.5,144.5 C 182.833,144.5 183.167,144.5 183.5,144.5C 183.372,146.09 182.705,147.423 181.5,148.5C 175.713,152.031 169.713,155.031 163.5,157.5C 163.833,156.833 164.167,156.167 164.5,155.5C 169.454,152.067 174.788,149.234 180.5,147C 181.381,146.292 182.047,145.458 182.5,144.5 Z"/></g>
<g><path style="opacity:1" fill="#616161" d="M 164.5,155.5 C 164.167,156.167 163.833,156.833 163.5,157.5C 161.202,159.461 158.535,160.461 155.5,160.5C 158.299,158.597 161.299,156.931 164.5,155.5 Z"/></g>
<g><path style="opacity:1" fill="#9a9a9a" d="M 116.5,102.5 C 115.52,126.455 115.186,150.455 115.5,174.5C 132.389,164.714 149.389,154.881 166.5,145C 169.928,143.06 173.594,141.894 177.5,141.5C 177.047,142.458 176.381,143.292 175.5,144C 154.897,155.797 134.23,167.297 113.5,178.5C 113.333,153.831 113.5,129.164 114,104.5C 114.708,103.619 115.542,102.953 116.5,102.5 Z"/></g>
<g><path style="opacity:1" fill="#878787" d="M 41.5,71.5 C 40.5489,72.9187 40.2155,74.5853 40.5,76.5C 38.7729,97.488 38.4396,118.488 39.5,139.5C 41.3039,141.467 43.3039,143.301 45.5,145C 48.376,145.438 51.0427,146.438 53.5,148C 57.4217,150.246 61.0884,152.913 64.5,156C 69.2539,157.097 73.2539,159.43 76.5,163C 81.2539,164.097 85.2539,166.43 88.5,170C 94.4289,172.431 100.096,175.264 105.5,178.5C 105.435,181.998 104.101,182.498 101.5,180C 79.9173,167.293 58.4173,154.459 37,141.5C 37.0141,117.823 37.5141,94.1567 38.5,70.5C 39.791,70.2627 40.791,70.596 41.5,71.5 Z"/></g>
<g><path style="opacity:1" fill="#969696" d="M 154.5,161.5 C 153.656,163.759 151.989,164.759 149.5,164.5C 150.899,163.11 152.566,162.11 154.5,161.5 Z"/></g>
<g><path style="opacity:1" fill="#b1b1b1" d="M 59.5,161.5 C 64.8959,162.586 69.2293,165.253 72.5,169.5C 70.2986,168.434 67.9653,167.767 65.5,167.5C 65.5,166.5 65.5,165.5 65.5,164.5C 62.911,164.539 60.911,163.539 59.5,161.5 Z"/></g>
<g><path style="opacity:1" fill="#9b9b9b" d="M 149.5,165.5 C 146.005,168.447 142.005,170.447 137.5,171.5C 140.995,168.553 144.995,166.553 149.5,165.5 Z"/></g>
<g><path style="opacity:1" fill="#bcbcbc" d="M 133.5,174.5 C 128.868,179.439 123.201,182.772 116.5,184.5C 117.716,182.549 119.382,181.049 121.5,180C 125.6,178.18 129.6,176.347 133.5,174.5 Z"/></g>
<g><path style="opacity:1" fill="#afafaf" d="M 90.5,179.5 C 95.5611,181.263 100.228,183.763 104.5,187C 108.284,187.371 111.951,186.871 115.5,185.5C 113.177,187.328 110.511,188.661 107.5,189.5C 101.268,186.893 95.6016,183.56 90.5,179.5 Z"/></g>
</svg>
