<?xml version="1.0" encoding="UTF-8"?>
<!DOCTYPE svg PUBLIC "-//W3C//DTD SVG 1.1//EN" "http://www.w3.org/Graphics/SVG/1.1/DTD/svg11.dtd">
<svg xmlns="http://www.w3.org/2000/svg" version="1.1" width="215px" height="205px" style="shape-rendering:geometricPrecision; text-rendering:geometricPrecision; image-rendering:optimizeQuality; fill-rule:evenodd; clip-rule:evenodd" xmlns:xlink="http://www.w3.org/1999/xlink">
<g><path style="opacity:1" fill="#e3e3e3" d="M -0.5,-0.5 C 1.83333,-0.5 4.16667,-0.5 6.5,-0.5C 3.83333,1.5 1.5,3.83333 -0.5,6.5C -0.5,4.16667 -0.5,1.83333 -0.5,-0.5 Z"/></g>
<g><path style="opacity:1" fill="#000000" d="M 6.5,-0.5 C 73.5,-0.5 140.5,-0.5 207.5,-0.5C 210.067,0.716859 212.4,2.38353 214.5,4.5C 214.5,69.5 214.5,134.5 214.5,199.5C 212.66,201.914 210.327,203.581 207.5,204.5C 140.5,204.5 73.5,204.5 6.5,204.5C 3.23442,202.626 0.901085,199.96 -0.5,196.5C -0.5,133.167 -0.5,69.8333 -0.5,6.5C 1.5,3.83333 3.83333,1.5 6.5,-0.5 Z"/></g>
<g><path style="opacity:1" fill="#d8d8d8" d="M 207.5,-0.5 C 209.833,-0.5 212.167,-0.5 214.5,-0.5C 214.5,1.16667 214.5,2.83333 214.5,4.5C 212.4,2.38353 210.067,0.716859 207.5,-0.5 Z"/></g>
<g><path style="opacity:1" fill="#fefefe" d="M 7.5,5.5 C 74.1675,5.33334 140.834,5.5 207.5,6C 208,6.5 208.5,7 209,7.5C 209.667,70.5 209.667,133.5 209,196.5C 208.5,197 208,197.5 207.5,198C 140.833,198.667 74.1667,198.667 7.5,198C 7,197.5 6.5,197 6,196.5C 5.33333,133.5 5.33333,70.5 6,7.5C 6.71719,6.9558 7.21719,6.28913 7.5,5.5 Z"/></g>
<g><path style="opacity:1" fill="#0c0706" d="M 72.5,44.5 C 85.3065,42.4453 96.9731,45.112 107.5,52.5C 121.825,43.2218 136.825,42.0551 152.5,49C 173.963,64.6957 178.13,84.1957 165,107.5C 146.833,125.667 128.667,143.833 110.5,162C 108.5,162.667 106.5,162.667 104.5,162C 86.6667,144.167 68.8333,126.333 51,108.5C 37.3639,86.9261 40.1972,67.7594 59.5,51C 63.7708,48.5325 68.1041,46.3659 72.5,44.5 Z"/></g>
<g><path style="opacity:1" fill="#ea1515" d="M 108.5,59.5 C 108.5,92.1667 108.5,124.833 108.5,157.5C 89.9183,140.421 71.7516,122.754 54,104.5C 42.1701,82.6749 46.6701,65.1749 67.5,52C 76.3819,47.8772 85.3819,47.5439 94.5,51C 99.7222,53.1024 104.389,55.9357 108.5,59.5 Z"/></g>
<g><path style="opacity:1" fill="#f82c2c" d="M 108.5,157.5 C 108.5,124.833 108.5,92.1667 108.5,59.5C 113.297,53.4303 119.63,49.9303 127.5,49C 151.728,48.2291 165.062,59.8957 167.5,84C 167.477,93.4044 164.31,101.571 158,108.5C 141.632,125.035 125.132,141.368 108.5,157.5 Z"/></g>
<g><path style="opacity:1" fill="#e3e3e3" d="M -0.5,196.5 C 0.901085,199.96 3.23442,202.626 6.5,204.5C 4.16667,204.5 1.83333,204.5 -0.5,204.5C -0.5,201.833 -0.5,199.167 -0.5,196.5 Z"/></g>
<g><path style="opacity:1" fill="#dddddd" d="M 214.5,199.5 C 214.5,201.167 214.5,202.833 214.5,204.5C 212.167,204.5 209.833,204.5 207.5,204.5C 210.327,203.581 212.66,201.914 214.5,199.5 Z"/></g>
</svg>
