<?xml version="1.0" encoding="UTF-8"?>
<!DOCTYPE svg PUBLIC "-//W3C//DTD SVG 1.1//EN" "http://www.w3.org/Graphics/SVG/1.1/DTD/svg11.dtd">
<svg xmlns="http://www.w3.org/2000/svg" version="1.1" width="595px" height="561px" style="shape-rendering:geometricPrecision; text-rendering:geometricPrecision; image-rendering:optimizeQuality; fill-rule:evenodd; clip-rule:evenodd" xmlns:xlink="http://www.w3.org/1999/xlink">
<g><path style="opacity:1" fill="#f4f4f4" d="M -0.5,-0.5 C 197.833,-0.5 396.167,-0.5 594.5,-0.5C 594.5,186.5 594.5,373.5 594.5,560.5C 396.167,560.5 197.833,560.5 -0.5,560.5C -0.5,373.5 -0.5,186.5 -0.5,-0.5 Z"/></g>
<g><path style="opacity:1" fill="#000000" d="M 365.5,203.5 C 366.167,203.5 366.5,203.833 366.5,204.5C 366.833,205.5 367.5,206.167 368.5,206.5C 419.823,208.496 471.489,209.162 523.5,208.5C 523.5,247.5 523.5,286.5 523.5,325.5C 471.832,325.333 420.166,325.5 368.5,326C 367,326.833 365.833,328 365,329.5C 364.5,380.832 364.333,432.166 364.5,483.5C 325.5,483.5 286.5,483.5 247.5,483.5C 247.832,431.997 247.499,380.664 246.5,329.5C 245.694,328.272 244.694,327.272 243.5,326.5C 243.389,325.883 243.056,325.383 242.5,325C 191.168,324.5 139.834,324.333 88.5,324.5C 88.5,285.833 88.5,247.167 88.5,208.5C 139.834,208.667 191.168,208.5 242.5,208C 243.056,207.617 243.389,207.117 243.5,206.5C 244.694,205.728 245.694,204.728 246.5,203.5C 247.499,152.336 247.832,101.003 247.5,49.5C 286.167,49.5 324.833,49.5 363.5,49.5C 363.333,100.501 363.5,151.501 364,202.5C 364.383,203.056 364.883,203.389 365.5,203.5 Z"/></g>
<g><path style="opacity:1" fill="#292929" d="M 365.5,203.5 C 364.883,203.389 364.383,203.056 364,202.5C 363.5,151.501 363.333,100.501 363.5,49.5C 324.833,49.5 286.167,49.5 247.5,49.5C 247.832,101.003 247.499,152.336 246.5,203.5C 246.5,151.833 246.5,100.167 246.5,48.5C 285.833,48.5 325.167,48.5 364.5,48.5C 364.176,100.209 364.509,151.875 365.5,203.5 Z"/></g>
<g><path style="opacity:1" fill="#dedede" d="M 523.5,207.5 C 471.762,207.829 420.095,207.495 368.5,206.5C 367.5,206.167 366.833,205.5 366.5,204.5C 367.239,204.631 367.906,204.464 368.5,204C 367.549,203.282 367.383,202.449 368,201.5C 369.529,202.729 370.696,204.229 371.5,206C 422.335,206.167 473.002,206.667 523.5,207.5 Z"/></g>
<g><path style="opacity:1" fill="#1d1d1d" d="M 243.5,206.5 C 243.389,207.117 243.056,207.617 242.5,208C 191.168,208.5 139.834,208.667 88.5,208.5C 88.5,208.167 88.5,207.833 88.5,207.5C 140.209,207.824 191.875,207.491 243.5,206.5 Z"/></g>
<g><path style="opacity:1" fill="#1c1c1c" d="M 368.5,206.5 C 420.095,207.495 471.762,207.829 523.5,207.5C 523.5,207.833 523.5,208.167 523.5,208.5C 471.489,209.162 419.823,208.496 368.5,206.5 Z"/></g>
<g><path style="opacity:1" fill="#3d3d3d" d="M 88.5,207.5 C 88.5,207.833 88.5,208.167 88.5,208.5C 88.5,247.167 88.5,285.833 88.5,324.5C 139.834,324.333 191.168,324.5 242.5,325C 243.056,325.383 243.389,325.883 243.5,326.5C 191.542,325.509 139.542,325.176 87.5,325.5C 87.1681,285.996 87.5014,246.663 88.5,207.5 Z"/></g>
<g><path style="opacity:1" fill="#4c4c4c" d="M 246.5,329.5 C 247.499,380.664 247.832,431.997 247.5,483.5C 286.5,483.5 325.5,483.5 364.5,483.5C 325.337,484.499 286.004,484.832 246.5,484.5C 246.5,432.833 246.5,381.167 246.5,329.5 Z"/></g>
</svg>
