<?xml version="1.0" encoding="UTF-8"?>
<!DOCTYPE svg PUBLIC "-//W3C//DTD SVG 1.1//EN" "http://www.w3.org/Graphics/SVG/1.1/DTD/svg11.dtd">
<svg xmlns="http://www.w3.org/2000/svg" version="1.1" width="215px" height="205px" style="shape-rendering:geometricPrecision; text-rendering:geometricPrecision; image-rendering:optimizeQuality; fill-rule:evenodd; clip-rule:evenodd" xmlns:xlink="http://www.w3.org/1999/xlink">
<g><path style="opacity:1" fill="#000000" d="M -0.5,-0.5 C 71.1667,-0.5 142.833,-0.5 214.5,-0.5C 214.5,67.8333 214.5,136.167 214.5,204.5C 142.833,204.5 71.1667,204.5 -0.5,204.5C -0.5,136.167 -0.5,67.8333 -0.5,-0.5 Z"/></g>
<g><path style="opacity:1" fill="#9e9e9e" d="M 9.5,5.5 C 10.1667,5.5 10.8333,5.5 11.5,5.5C 11.3333,66.1676 11.5,126.834 12,187.5C 12.3095,188.766 12.8095,189.933 13.5,191C 78.8325,191.5 144.166,191.667 209.5,191.5C 209.5,192.167 209.5,192.833 209.5,193.5C 143.775,193.99 78.1084,193.49 12.5,192C 11.1068,190.829 10.2735,189.329 10,187.5C 9.50001,127.168 9.33334,66.8343 9.5,6.5C 9.5,6.16667 9.5,5.83333 9.5,5.5 Z"/></g>
<g><path style="opacity:1" fill="#fdfdfd" d="M 16.5,5.5 C 80.1675,5.33334 143.834,5.5 207.5,6C 208,6.5 208.5,7 209,7.5C 209.5,67.1657 209.667,126.832 209.5,186.5C 145.499,186.667 81.4991,186.5 17.5,186C 16.5022,125.905 16.1689,65.738 16.5,5.5 Z"/></g>
<g><path style="opacity:1" fill="#818181" d="M 9.5,5.5 C 9.5,5.83333 9.5,6.16667 9.5,6.5C 8.3347,67.332 8.16803,128.332 9,189.5C 9.46524,190.931 10.2986,192.097 11.5,193C 77.4171,194.493 143.417,194.993 209.5,194.5C 209.489,196.017 208.823,197.184 207.5,198C 140.833,198.667 74.1667,198.667 7.5,198C 7,197.5 6.5,197 6,196.5C 5.33333,133.5 5.33333,70.5 6,7.5C 6.81595,6.17723 7.98261,5.51056 9.5,5.5 Z"/></g>
<g><path style="opacity:1" fill="#07080b" d="M 102.5,26.5 C 106.182,26.3347 109.848,26.5014 113.5,27C 131.475,37.3279 150.808,43.3279 171.5,45C 176.49,74.0841 172.657,102.251 160,129.5C 149.934,148.233 135.767,163.067 117.5,174C 108.859,178.04 100.859,177.04 93.5,171C 65.9959,151.519 49.4959,125.019 44,91.5C 43.056,79.5077 42.2226,67.5077 41.5,55.5C 41.5069,52.4083 42.0069,49.4083 43,46.5C 43.7504,45.8742 44.5838,45.3742 45.5,45C 56.6241,43.202 67.6241,40.8687 78.5,38C 86.9873,34.9209 94.9873,31.0876 102.5,26.5 Z"/></g>
<g><path style="opacity:1" fill="#0095fd" d="M 111.5,31.5 C 129.458,41.7069 148.792,47.7069 169.5,49.5C 170.121,68.7399 168.288,87.7399 164,106.5C 155.151,135.01 137.817,156.676 112,171.5C 111.5,124.835 111.333,78.1679 111.5,31.5 Z"/></g>
<g><path style="opacity:1" fill="#0a4aa1" d="M 104.5,31.5 C 106.495,77.8214 107.162,124.488 106.5,171.5C 83.4328,160.595 66.9328,143.262 57,119.5C 48.6476,96.6526 45.481,73.1526 47.5,49C 67.8739,47.3281 86.8739,41.4948 104.5,31.5 Z"/></g>
<g><path style="opacity:1" fill="#e9e9e9" d="M 13.5,5.5 C 14.5,5.5 15.5,5.5 16.5,5.5C 16.1689,65.738 16.5022,125.905 17.5,186C 81.4991,186.5 145.499,186.667 209.5,186.5C 209.5,187.167 209.5,187.833 209.5,188.5C 145.499,188.667 81.4991,188.5 17.5,188C 16.6721,187.085 15.6721,186.419 14.5,186C 13.5022,125.905 13.1689,65.738 13.5,5.5 Z"/></g>
<g><path style="opacity:1" fill="#cccccc" d="M 12.5,5.5 C 12.8333,5.5 13.1667,5.5 13.5,5.5C 13.1689,65.738 13.5022,125.905 14.5,186C 15.6721,186.419 16.6721,187.085 17.5,188C 81.4991,188.5 145.499,188.667 209.5,188.5C 209.5,189.167 209.5,189.833 209.5,190.5C 144.497,190.833 79.4966,190.5 14.5,189.5C 14,188.5 13.5,187.5 13,186.5C 12.5,126.168 12.3333,65.8343 12.5,5.5 Z"/></g>
<g><path style="opacity:1" fill="#b5b5b5" d="M 11.5,5.5 C 11.8333,5.5 12.1667,5.5 12.5,5.5C 12.3333,65.8343 12.5,126.168 13,186.5C 13.5,187.5 14,188.5 14.5,189.5C 79.4966,190.5 144.497,190.833 209.5,190.5C 209.5,190.833 209.5,191.167 209.5,191.5C 144.166,191.667 78.8325,191.5 13.5,191C 12.8095,189.933 12.3095,188.766 12,187.5C 11.5,126.834 11.3333,66.1676 11.5,5.5 Z"/></g>
<g><path style="opacity:1" fill="#8e8e8e" d="M 9.5,6.5 C 9.33334,66.8343 9.50001,127.168 10,187.5C 10.2735,189.329 11.1068,190.829 12.5,192C 78.1084,193.49 143.775,193.99 209.5,193.5C 209.5,193.833 209.5,194.167 209.5,194.5C 143.417,194.993 77.4171,194.493 11.5,193C 10.2986,192.097 9.46524,190.931 9,189.5C 8.16803,128.332 8.3347,67.332 9.5,6.5 Z"/></g>
</svg>
