<?xml version="1.0" encoding="UTF-8"?>
<!DOCTYPE svg PUBLIC "-//W3C//DTD SVG 1.1//EN" "http://www.w3.org/Graphics/SVG/1.1/DTD/svg11.dtd">
<svg xmlns="http://www.w3.org/2000/svg" version="1.1" width="215px" height="205px" style="shape-rendering:geometricPrecision; text-rendering:geometricPrecision; image-rendering:optimizeQuality; fill-rule:evenodd; clip-rule:evenodd" xmlns:xlink="http://www.w3.org/1999/xlink">
<g><path style="opacity:1" fill="#000000" d="M -0.5,-0.5 C 71.1667,-0.5 142.833,-0.5 214.5,-0.5C 214.5,67.8333 214.5,136.167 214.5,204.5C 142.833,204.5 71.1667,204.5 -0.5,204.5C -0.5,136.167 -0.5,67.8333 -0.5,-0.5 Z"/></g>
<g><path style="opacity:1" fill="#fefefe" d="M 16.5,5.5 C 80.1675,5.33334 143.834,5.5 207.5,6C 208,6.5 208.5,7 209,7.5C 209.5,67.1657 209.667,126.832 209.5,186.5C 145.499,186.667 81.4991,186.5 17.5,186C 16.5022,125.905 16.1689,65.738 16.5,5.5 Z"/></g>
<g><path style="opacity:1" fill="#838383" d="M 9.5,5.5 C 9.33334,66.1676 9.50001,126.834 10,187.5C 10.2735,189.329 11.1068,190.829 12.5,192C 78.1084,193.49 143.775,193.99 209.5,193.5C 209.703,195.39 209.037,196.89 207.5,198C 140.833,198.667 74.1667,198.667 7.5,198C 7,197.5 6.5,197 6,196.5C 5.33333,133.5 5.33333,70.5 6,7.5C 6.81595,6.17723 7.98261,5.51056 9.5,5.5 Z"/></g>
<g><path style="opacity:1" fill="#111111" d="M 81.5,144.5 C 81.8076,142.076 81.4742,139.743 80.5,137.5C 79.8933,137.624 79.56,137.957 79.5,138.5C 76.2039,142.298 72.7039,145.964 69,149.5C 68.6667,153.5 68.3333,157.5 68,161.5C 65.4848,167.509 60.9848,170.009 54.5,169C 49.543,167.256 46.8763,163.756 46.5,158.5C 41.3016,158.143 37.8016,155.476 36,150.5C 35.0753,144.516 37.242,140.016 42.5,137C 46.8333,136.667 51.1667,136.333 55.5,136C 58.6828,132.985 61.6828,129.818 64.5,126.5C 62.0649,123.46 61.0649,119.96 61.5,116C 62.5,110.333 63.5,104.667 64.5,99C 63.6719,93.0198 63.0052,87.0198 62.5,81C 62.3532,77.0051 63.0198,73.1718 64.5,69.5C 61.6828,66.1822 58.6828,63.0155 55.5,60C 51.1667,59.6667 46.8333,59.3333 42.5,59C 33.1667,52 33.1667,45 42.5,38C 43.7932,37.51 45.1266,37.3433 46.5,37.5C 46.8575,32.3016 49.5241,28.8016 54.5,27C 60.4931,26.1069 64.9931,28.2735 68,33.5C 68.3333,37.8333 68.6667,42.1667 69,46.5C 71.6824,49.3497 74.5157,52.0164 77.5,54.5C 97.104,45.301 116.771,45.301 136.5,54.5C 139.484,52.0164 142.318,49.3497 145,46.5C 145.333,42.1667 145.667,37.8333 146,33.5C 152.96,24.2877 159.96,24.2877 167,33.5C 167.49,34.7932 167.657,36.1266 167.5,37.5C 177.602,40.0385 180.436,46.0385 176,55.5C 174.421,57.0412 172.587,58.2078 170.5,59C 166.5,59.3333 162.5,59.6667 158.5,60C 155.317,63.0155 152.317,66.1822 149.5,69.5C 150.98,73.1718 151.647,77.0051 151.5,81C 150.995,87.0198 150.328,93.0198 149.5,99C 150.5,104.667 151.5,110.333 152.5,116C 152.935,119.96 151.935,123.46 149.5,126.5C 152.317,129.818 155.317,132.985 158.5,136C 164.09,135.905 169.423,136.905 174.5,139C 179.589,144.361 179.756,149.861 175,155.5C 172.765,157.202 170.265,158.202 167.5,158.5C 166.792,165.374 162.959,169.041 156,169.5C 150.934,168.97 147.6,166.304 146,161.5C 145.667,157.5 145.333,153.5 145,149.5C 141.318,145.651 137.485,141.984 133.5,138.5C 132.786,141.027 132.12,143.527 131.5,146C 119.794,152.336 107.461,154.003 94.5,151C 89.5469,149.857 85.2136,147.69 81.5,144.5 Z"/></g>
<g><path style="opacity:1" fill="#3d3d3d" d="M 55.5,30.5 C 59.0254,30.3459 61.8587,31.6792 64,34.5C 64.3333,38.5 64.6667,42.5 65,46.5C 67.2595,50.5949 70.0928,54.2616 73.5,57.5C 71.1667,60.1667 68.8333,62.8333 66.5,65.5C 61.1017,57.1356 53.435,53.6356 43.5,55C 38.1667,50.6667 38.1667,46.3333 43.5,42C 45.5,41.6667 47.5,41.3333 49.5,41C 49.4134,36.226 51.4134,32.726 55.5,30.5 Z"/></g>
<g><path style="opacity:1" fill="#3d3d3d" d="M 154.5,30.5 C 160.905,30.7386 164.072,34.0719 164,40.5C 169.66,40.3265 173.16,42.9932 174.5,48.5C 174.06,51.2138 172.726,53.3805 170.5,55C 160.565,53.6356 152.898,57.1356 147.5,65.5C 145.167,62.8333 142.833,60.1667 140.5,57.5C 143.907,54.2616 146.741,50.5949 149,46.5C 149.333,42.5 149.667,38.5 150,34.5C 151.397,32.9297 152.897,31.5964 154.5,30.5 Z"/></g>
<g><path style="opacity:1" fill="#606060" d="M 107.5,52.5 C 107.5,71.5 107.5,90.5 107.5,109.5C 105.418,109.472 103.584,110.139 102,111.5C 99.8014,114.395 98.3014,117.561 97.5,121C 98.2321,126.871 101.565,129.037 107.5,127.5C 106.874,134.584 107.541,141.25 109.5,147.5C 108.081,148.451 106.415,148.784 104.5,148.5C 104.665,145.482 104.498,142.482 104,139.5C 102.989,138.663 101.822,138.33 100.5,138.5C 100.5,141.5 100.5,144.5 100.5,147.5C 98.7376,147.643 97.0709,147.309 95.5,146.5C 94.6786,143.553 94.1786,140.553 94,137.5C 93,136.167 92,136.167 91,137.5C 90.5034,139.81 90.3367,142.143 90.5,144.5C 89.0695,144.579 87.7362,144.246 86.5,143.5C 85.6735,139.541 85.1735,135.541 85,131.5C 80.0512,128.946 74.8845,126.779 69.5,125C 68.3333,123.833 67.1667,122.667 66,121.5C 64.7337,115.405 65.7337,109.738 69,104.5C 69.9137,98.9702 69.247,93.6369 67,88.5C 65.2541,68.8414 74.0874,57.0081 93.5,53C 98.1548,52.5008 102.821,52.3342 107.5,52.5 Z"/></g>
<g><path style="opacity:1" fill="#939393" d="M 107.5,52.5 C 120.183,51.7905 131.35,55.4572 141,63.5C 146.902,70.8778 148.902,79.2111 147,88.5C 143.521,96.0042 143.855,103.338 148,110.5C 148.996,115.229 148.496,119.729 146.5,124C 140.369,125.928 134.536,128.428 129,131.5C 128.827,135.541 128.327,139.541 127.5,143.5C 126.264,144.246 124.93,144.579 123.5,144.5C 123.663,142.143 123.497,139.81 123,137.5C 122,136.167 121,136.167 120,137.5C 119.821,140.553 119.321,143.553 118.5,146.5C 116.929,147.309 115.262,147.643 113.5,147.5C 113.5,144.5 113.5,141.5 113.5,138.5C 112.178,138.33 111.011,138.663 110,139.5C 109.503,142.146 109.336,144.813 109.5,147.5C 107.541,141.25 106.874,134.584 107.5,127.5C 112.479,128.193 115.479,126.193 116.5,121.5C 115.669,115.694 112.669,111.694 107.5,109.5C 107.5,90.5 107.5,71.5 107.5,52.5 Z"/></g>
<g><path style="opacity:1" fill="#020202" d="M 82.5,87.5 C 87.5111,87.3341 92.5111,87.5007 97.5,88C 106.143,94.0189 106.81,101.019 99.5,109C 92.0235,113.351 84.5235,113.517 77,109.5C 72.2639,100.378 74.0972,93.0446 82.5,87.5 Z"/></g>
<g><path style="opacity:1" fill="#030303" d="M 116.5,87.5 C 122.245,87.2111 127.912,87.7111 133.5,89C 139.112,93.1756 140.945,98.6756 139,105.5C 134.918,111.976 129.085,114.143 121.5,112C 112.759,109.279 108.926,103.446 110,94.5C 111.694,91.6424 113.861,89.309 116.5,87.5 Z"/></g>
<g><path style="opacity:1" fill="#080808" d="M 107.5,109.5 C 112.669,111.694 115.669,115.694 116.5,121.5C 115.479,126.193 112.479,128.193 107.5,127.5C 101.565,129.037 98.2321,126.871 97.5,121C 98.3014,117.561 99.8014,114.395 102,111.5C 103.584,110.139 105.418,109.472 107.5,109.5 Z"/></g>
<g><path style="opacity:1" fill="#5a5a5a" d="M 108.5,114.5 C 107.527,116.948 107.194,119.615 107.5,122.5C 106.305,122.678 105.138,123.011 104,123.5C 102.5,123.333 101.667,122.5 101.5,121C 102.417,118.419 103.751,116.086 105.5,114C 106.749,113.26 107.749,113.427 108.5,114.5 Z"/></g>
<g><path style="opacity:1" fill="#8b8b8b" d="M 108.5,114.5 C 110.382,116.239 111.715,118.406 112.5,121C 111.5,123.611 109.833,124.111 107.5,122.5C 107.194,119.615 107.527,116.948 108.5,114.5 Z"/></g>
<g><path style="opacity:1" fill="#3d3d3d" d="M 68.5,128.5 C 72.2584,129.699 75.9251,131.199 79.5,133C 73.922,137.907 69.0887,143.407 65,149.5C 64.6667,153.5 64.3333,157.5 64,161.5C 59.6667,166.833 55.3333,166.833 51,161.5C 50.7638,159.236 50.2638,157.069 49.5,155C 42.9205,155.088 39.7538,151.921 40,145.5C 40.7845,143.714 41.9512,142.214 43.5,141C 54.3906,141.942 62.7239,137.775 68.5,128.5 Z"/></g>
<g><path style="opacity:1" fill="#3d3d3d" d="M 144.5,128.5 C 148.287,132.112 152.287,135.612 156.5,139C 161.051,140.215 165.718,140.881 170.5,141C 175.833,145.333 175.833,149.667 170.5,154C 168.5,154.333 166.5,154.667 164.5,155C 164.422,161.745 161.089,165.078 154.5,165C 152.714,164.215 151.214,163.049 150,161.5C 150.095,155.91 149.095,150.577 147,145.5C 142.985,141.318 138.818,137.318 134.5,133.5C 137.727,131.436 141.06,129.77 144.5,128.5 Z"/></g>
<g><path style="opacity:1" fill="#8a8a8a" d="M 79.5,138.5 C 79.56,137.957 79.8933,137.624 80.5,137.5C 81.4742,139.743 81.8076,142.076 81.5,144.5C 80.8333,142.5 80.1667,140.5 79.5,138.5 Z"/></g>
<g><path style="opacity:1" fill="#e9e9e9" d="M 13.5,5.5 C 14.5,5.5 15.5,5.5 16.5,5.5C 16.1689,65.738 16.5022,125.905 17.5,186C 81.4991,186.5 145.499,186.667 209.5,186.5C 209.5,187.167 209.5,187.833 209.5,188.5C 145.499,188.667 81.4991,188.5 17.5,188C 16.6721,187.085 15.6721,186.419 14.5,186C 13.5022,125.905 13.1689,65.738 13.5,5.5 Z"/></g>
<g><path style="opacity:1" fill="#cccccc" d="M 12.5,5.5 C 12.8333,5.5 13.1667,5.5 13.5,5.5C 13.1689,65.738 13.5022,125.905 14.5,186C 15.6721,186.419 16.6721,187.085 17.5,188C 81.4991,188.5 145.499,188.667 209.5,188.5C 209.5,189.167 209.5,189.833 209.5,190.5C 144.497,190.833 79.4966,190.5 14.5,189.5C 14,188.5 13.5,187.5 13,186.5C 12.5,126.168 12.3333,65.8343 12.5,5.5 Z"/></g>
<g><path style="opacity:1" fill="#b5b5b5" d="M 11.5,5.5 C 11.8333,5.5 12.1667,5.5 12.5,5.5C 12.3333,65.8343 12.5,126.168 13,186.5C 13.5,187.5 14,188.5 14.5,189.5C 79.4966,190.5 144.497,190.833 209.5,190.5C 209.5,190.833 209.5,191.167 209.5,191.5C 144.166,191.667 78.8325,191.5 13.5,191C 12.8095,189.933 12.3095,188.766 12,187.5C 11.5,126.834 11.3333,66.1676 11.5,5.5 Z"/></g>
<g><path style="opacity:1" fill="#9e9e9e" d="M 9.5,5.5 C 10.1667,5.5 10.8333,5.5 11.5,5.5C 11.3333,66.1676 11.5,126.834 12,187.5C 12.3095,188.766 12.8095,189.933 13.5,191C 78.8325,191.5 144.166,191.667 209.5,191.5C 209.5,192.167 209.5,192.833 209.5,193.5C 143.775,193.99 78.1084,193.49 12.5,192C 11.1068,190.829 10.2735,189.329 10,187.5C 9.50001,126.834 9.33334,66.1676 9.5,5.5 Z"/></g>
</svg>
